<svg width="12" height="9" viewBox="0 0 12 9" fill="none" xmlns="http://www.w3.org/2000/svg">
<path d="M11.9655 4.6621C11.9479 4.7016 11.5245 5.6409 10.5828 6.5826C9.32864 7.83695 7.74385 8.5 6 8.5C4.25615 8.5 2.67135 7.837 1.41716 6.58265C0.475458 5.6409 0.0520088 4.70155 0.0344588 4.66205C0.011739 4.61091 0 4.55556 0 4.4996C0 4.44364 0.011739 4.3883 0.0344588 4.33715C0.0520588 4.29765 0.475458 3.35855 1.41721 2.41695C2.6714 1.1629 4.2561 0.5 6 0.5C7.7439 0.5 9.3286 1.1629 10.5828 2.41695C11.5245 3.35855 11.9479 4.2976 11.9655 4.33715C11.9883 4.3883 12 4.44364 12 4.4996C12 4.55556 11.9882 4.61096 11.9655 4.6621ZM6 6.2996C6.35601 6.2996 6.70402 6.19403 7.00002 5.99625C7.29603 5.79846 7.52674 5.51734 7.66298 5.18843C7.79922 4.85952 7.83486 4.4976 7.76541 4.14844C7.69596 3.79927 7.52452 3.47854 7.27279 3.22681C7.02106 2.97507 6.70033 2.80364 6.35116 2.73419C6.002 2.66473 5.64008 2.70038 5.31117 2.83662C4.98226 2.97285 4.70114 3.20356 4.50336 3.49957C4.30557 3.79558 4.2 4.14359 4.2 4.4996C4.20053 4.97683 4.39034 5.43436 4.72779 5.77181C5.06524 6.10926 5.52277 6.29907 6 6.2996Z" fill="#403A4B" fill-opacity="0.6"/>
</svg>
